HIERARCHY
ROOT Hips
{
    OFFSET 0.000000 0.000000 0.000000
    CHANNELS 6 Xposition Yposition Zposition Zrotation Xrotation Yrotation
    JOINT Spine
    {
        OFFSET -0.000000 7.925200 0.000000
        CHANNELS 3 Zrotation Xrotation Yrotation
        JOINT Spine1
        {
            OFFSET -0.000000 23.364719 0.000000
            CHANNELS 3 Zrotation Xrotation Yrotation
            JOINT Neck
            {
                OFFSET -0.000000 23.268766 2.115342
                CHANNELS 3 Zrotation Xrotation Yrotation
                JOINT Head
                {
                    OFFSET -0.000000 13.530829 -1.932976
                    CHANNELS 3 Zrotation Xrotation Yrotation
                    End Site
                    {
                        OFFSET -0.000000 24.162195 0.000000
                    }
                }
            }
            JOINT LeftShoulder
            {
                OFFSET 3.858291 22.792089 -0.033814
                CHANNELS 3 Zrotation Xrotation Yrotation
                JOINT LeftArm
                {
                    OFFSET 7.057024 0.000000 0.000000
                    CHANNELS 3 Zrotation Xrotation Yrotation
                    JOINT LeftForeArm
                    {
                        OFFSET 34.734173 0.000000 0.000000
                        CHANNELS 3 Zrotation Xrotation Yrotation
                        JOINT LeftHand
                        {
                            OFFSET 23.943203 0.000000 0.000000
                            CHANNELS 3 Zrotation Xrotation Yrotation
                            End Site
                            {
                                OFFSET 14.497317 0.000000 0.000000
                            }
                        }
                    }
                }
            }
            JOINT RightShoulder
            {
                OFFSET -3.868823 22.792089 -0.033814
                CHANNELS 3 Zrotation Xrotation Yrotation
                JOINT RightArm
                {
                    OFFSET -7.057024 0.000000 0.000000
                    CHANNELS 3 Zrotation Xrotation Yrotation
                    JOINT RightForeArm
                    {
                        OFFSET -34.734173 0.000000 0.000000
                        CHANNELS 3 Zrotation Xrotation Yrotation
                        JOINT RightHand
                        {
                            OFFSET -23.943203 0.000000 0.000000
                            CHANNELS 3 Zrotation Xrotation Yrotation
                            End Site
                            {
                                OFFSET -14.497317 0.000000 0.000000
                            }
                        }
                    }
                }
            }
        }
    }
    JOINT LeftUpLeg
    {
        OFFSET 9.664878 0.000000 0.000000
        CHANNELS 3 Zrotation Xrotation Yrotation
        JOINT LeftLeg
        {
            OFFSET -0.000000 -38.728706 0.000000
            CHANNELS 3 Zrotation Xrotation Yrotation
            JOINT LeftFoot
            {
                OFFSET -0.000000 -40.242161 0.000000
                CHANNELS 3 Zrotation Xrotation Yrotation
                JOINT LeftToeBase
                {
                    OFFSET -0.000000 -6.282171 14.497317
                    CHANNELS 3 Zrotation Xrotation Yrotation
                    End Site
                    {
                        OFFSET -0.000000 0.000000 3.865951
                    }
                }
            }
        }
    }
    JOINT RightUpLeg
    {
        OFFSET -9.664878 0.000000 0.000000
        CHANNELS 3 Zrotation Xrotation Yrotation
        JOINT RightLeg
        {
            OFFSET -0.000000 -38.728706 0.000000
            CHANNELS 3 Zrotation Xrotation Yrotation
            JOINT RightFoot
            {
                OFFSET -0.000000 -40.242161 0.000000
                CHANNELS 3 Zrotation Xrotation Yrotation
                JOINT RightToeBase
                {
                    OFFSET -0.000000 -6.282171 14.497317
                    CHANNELS 3 Zrotation Xrotation Yrotation
                    End Site
                    {
                        OFFSET -0.000000 0.000000 3.865951
                    }
                }
            }
        }
    }
}
MOTION
Frames:    7
Frame Time:    0.008333
-14.374195    88.758331    37.024815    -1.064172    -0.383324    86.811569    1.214966    -0.655266    -0.693250    -0.325363    -5.053153    -0.714646    -3.274878    17.775873    4.079668    -2.494532    2.844597    3.904889    14.149991    -0.319180    1.459007    -14.498606    5.882872    -8.286334    2.952232    0.924178    -1.974875    7.090062    0.703258    -4.386012    -13.106003    -0.045161    6.247437    14.637611    5.947759    9.889135    -1.380214    1.912348    -2.093098    -2.254792    1.832175    2.794421    0.148830    5.607034    4.219383    -2.529171    -2.547949    -2.634470    2.971206    -3.124194    4.275823    0.000000    0.000000    0.000000    3.622829    2.458889    -3.496430    -1.854190    2.719203    3.885468    -2.252441    -4.994696    -9.202971    0.000000    0.000000    0.000000    
-14.385544    88.758530    37.024189    -1.046823    -0.386306    86.806122    1.204299    -0.639441    -0.672193    -0.324925    -5.063584    -0.693283    -3.281008    17.818584    4.063873    -2.431288    2.793101    3.893399    14.125457    -0.289841    1.448292    -14.459989    5.878545    -8.318139    2.954970    0.899465    -2.023475    7.081728    0.683087    -4.339264    -13.073400    -0.046190    6.195299    14.616624    5.950774    9.919252    -1.350502    1.976963    -2.121043    -2.343288    1.892499    2.910918    0.152743    5.617044    4.234150    -2.530211    -2.544219    -2.660410    2.961155    -3.124320    4.288593    0.000000    0.000000    0.000000    3.627639    2.462250    -3.509676    -1.862986    2.734132    3.947743    -2.249282    -4.995911    -9.250871    0.000000    0.000000    0.000000    
-14.394233    88.759140    37.021690    -1.042749    -0.384665    86.803604    1.203210    -0.641742    -0.665367    -0.336185    -5.049269    -0.687007    -3.283268    17.757536    4.069877    -2.409809    2.880684    3.905911    14.191775    -0.316954    1.439788    -14.531887    5.889306    -8.309926    2.967977    0.895727    -2.025729    7.102689    0.677890    -4.354234    -13.083875    -0.025998    6.273418    14.647024    5.913835    9.824814    -1.386768    1.955375    -2.076011    -2.276353    1.874469    2.811481    0.154323    5.612785    4.220734    -2.538388    -2.537930    -2.658334    2.988469    -3.118960    4.299468    0.000000    0.000000    0.000000    3.626817    2.460020    -3.514592    -1.863158    2.731642    3.954662    -2.221760    -4.986642    -9.262730    0.000000    0.000000    0.000000    
-14.400440    88.758347    37.021053    -1.026864    -0.388209    86.803276    1.198114    -0.631207    -0.659143    -0.331396    -5.042855    -0.680390    -3.318931    17.613207    3.982749    -2.311261    3.091454    3.835089    14.200259    -0.316300    1.427049    -14.540270    5.889361    -8.305950    2.950711    0.912933    -2.022870    7.134341    0.692550    -4.370370    -13.079622    -0.033654    6.257044    14.638800    5.941951    9.832414    -1.395380    1.915601    -2.056364    -2.270864    1.835744    2.768124    0.154166    5.624887    4.240879    -2.534476    -2.538600    -2.657835    2.970039    -3.124747    4.277841    0.000000    0.000000    0.000000    3.633224    2.465880    -3.531128    -1.876787    2.742003    3.938294    -2.248452    -4.984773    -9.217396    0.000000    0.000000    0.000000    
-14.407337    88.759148    37.021076    -1.017349    -0.389660    86.799545    1.202340    -0.620942    -0.650723    -0.349926    -5.044611    -0.672672    -3.318180    17.579788    3.986148    -2.287332    3.150507    3.843641    14.218173    -0.307365    1.422953    -14.542638    5.904739    -8.308575    2.962744    0.897522    -2.041673    7.126941    0.679430    -4.349186    -13.056287    -0.032738    6.232759    14.626971    5.952626    9.845491    -1.376942    1.916593    -2.067571    -2.334840    1.833941    2.838929    0.158114    5.632173    4.233486    -2.540051    -2.544125    -2.638417    2.955580    -3.112357    4.273501    0.000000    0.000000    0.000000    3.632813    2.475116    -3.509282    -1.871043    2.737996    3.933450    -2.251802    -4.981916    -9.228674    0.000000    0.000000    0.000000    
-14.415616    88.760071    37.019367    -1.011391    -0.394110    86.800224    1.195436    -0.618437    -0.645705    -0.330960    -5.042303    -0.666729    -3.297429    17.609760    3.987503    -2.326220    3.115483    3.839189    14.162546    -0.296130    1.414345    -14.495297    5.881964    -8.314600    2.962317    0.892152    -2.033987    7.135355    0.673317    -4.352435    -13.063824    -0.033198    6.223342    14.622859    5.964060    9.849800    -1.378866    1.915695    -2.065498    -2.314151    1.833273    2.852132    0.158724    5.628240    4.243680    -2.536911    -2.534880    -2.636246    2.961326    -3.120474    4.266534    0.000000    0.000000    0.000000    3.632560    2.475100    -3.505309    -1.863226    2.736702    3.911319    -2.254775    -4.975573    -9.217192    0.000000    0.000000    0.000000    
-14.421028    88.760086    37.018673    -0.995845    -0.394364    86.803070    1.204858    -0.618437    -0.653854    -0.347203    -5.018813    -0.675627    -3.302888    17.612017    3.992532    -2.323104    3.098622    3.844286    14.171524    -0.302623    1.435894    -14.500260    5.898777    -8.309572    2.980626    0.874762    -2.051281    7.104637    0.658741    -4.337150    -13.073635    -0.038192    6.244897    14.631795    5.992629    9.844601    -1.380539    1.894106    -2.049804    -2.330899    1.811851    2.831185    0.161931    5.644197    4.233809    -2.543504    -2.543918    -2.632906    2.942164    -3.113824    4.267009    0.000000    0.000000    0.000000    3.632711    2.493945    -3.468957    -1.864183    2.728379    3.887030    -2.260937    -4.971199    -9.224804    0.000000    0.000000    0.000000    
